<svg xmlns="http://www.w3.org/2000/svg" xmlns:xlink="http://www.w3.org/1999/xlink" viewBox="0 0 778.33 761.38"><defs><style>.cls-1{fill:none;}.cls-2{clip-path:url(#clip-path);}.cls-3{fill:#00bcd4;}</style><clipPath id="clip-path"><path class="cls-1" d="M743.34,499.88q-66,119-178,169t-260,85.5q-148,35.5-194.5-109t-94.5-282q-48-137.51,45-267t241-85q148,44.51,269,82t179.5,162.5Q809.34,380.88,743.34,499.88Z"/></clipPath></defs><g id="Layer_2" data-name="Layer 2"><g id="Layer_1-2" data-name="Layer 1"><g class="cls-2"><path class="cls-3" d="M743.34,499.88q-66,119-178,169t-260,85.5q-148,35.5-194.5-109t-94.5-282q-48-137.51,45-267t241-85q148,44.51,269,82t179.5,162.5Q809.34,380.88,743.34,499.88Z"/></g></g></g></svg>