<svg xmlns="http://www.w3.org/2000/svg" xmlns:xlink="http://www.w3.org/1999/xlink" viewBox="0 0 829.12 788.2"><defs><style>.cls-1{fill:none;}.cls-2{clip-path:url(#clip-path);}.cls-3{fill:#643094;}</style><clipPath id="clip-path"><path class="cls-1" d="M810,543.26q-51.51,140-185,186.5t-280.5,57.5q-147,11-250.5-107.5t-93-273q10.5-154.5,124-240.5A1261.39,1261.39,0,0,1,371,20.76q132.5-59.49,224.5,51.5t179,221Q861.47,403.27,810,543.26Z"/></clipPath></defs><g id="Layer_2" data-name="Layer 2"><g id="Layer_1-2" data-name="Layer 1"><g class="cls-2"><path class="cls-3" d="M810,543.26q-51.51,140-185,186.5t-280.5,57.5q-147,11-250.5-107.5t-93-273q10.5-154.5,124-240.5A1261.39,1261.39,0,0,1,371,20.76q132.5-59.49,224.5,51.5t179,221Q861.47,403.27,810,543.26Z"/></g></g></g></svg>